<?xml version="1.0" standalone="no"?>
<!DOCTYPE svg PUBLIC "-//W3C//DTD SVG 20010904//EN"
 "http://www.w3.org/TR/2001/REC-SVG-20010904/DTD/svg10.dtd">
<svg version="1.0" xmlns="http://www.w3.org/2000/svg"
 width="435.000000pt" height="360.000000pt" viewBox="0 0 435.000000 360.000000"
 preserveAspectRatio="xMidYMid meet">

<g transform="translate(0.000000,360.000000) scale(0.100000,-0.100000)"
fill="#000000" stroke="none">
<path d="M2243 3073 c-29 -2 -53 -8 -53 -13 0 -5 -6 -7 -14 -4 -16 6 -217 -42
-225 -54 -4 -4 -12 -7 -18 -8 -47 -4 -47 -4 -35 -16 18 -18 15 -39 -4 -31 -11
4 -12 8 -4 13 8 5 7 9 -5 14 -23 9 -27 8 -19 -5 4 -8 0 -9 -15 -4 -12 4 -21 2
-21 -4 0 -6 -8 -8 -17 -4 -15 5 -15 3 2 -11 l20 -18 -20 7 c-11 4 -26 10 -34
13 -10 4 -12 1 -6 -8 6 -10 4 -12 -8 -7 -9 3 -18 0 -21 -9 -4 -10 -2 -12 6 -8
7 4 8 3 4 -4 -10 -16 -36 -15 -32 1 1 6 1 9 -1 5 -2 -4 -12 -4 -21 -1 -12 4
-11 1 3 -10 22 -16 38 -20 69 -18 16 1 17 3 5 18 -13 15 -12 15 7 5 30 -16
153 25 146 48 -4 12 -2 13 9 3 15 -15 33 -17 25 -4 -4 5 4 7 16 3 13 -3 19 -1
15 5 -5 7 1 9 15 5 13 -3 19 -1 15 5 -5 7 0 9 13 6 12 -3 20 0 20 6 0 7 4 9
10 6 5 -3 42 1 82 9 118 23 216 28 333 16 163 -16 298 -50 615 -155 277 -91
369 -120 478 -146 51 -12 62 -22 42 -34 -16 -10 -29 -75 -20 -100 5 -13 21
-32 35 -41 23 -15 33 -15 79 -5 29 6 60 9 68 6 25 -10 38 -52 38 -120 0 -57 2
-65 19 -65 24 0 31 19 31 83 0 66 -31 131 -70 147 -22 9 -41 9 -82 1 -46 -10
-54 -10 -65 5 -24 32 4 71 64 85 24 6 46 16 49 21 11 17 -18 37 -64 44 -99 14
-258 59 -547 154 -344 113 -373 121 -513 149 -103 21 -300 33 -399 24z"/>
<path d="M1647 2889 c7 -7 15 -10 18 -7 3 3 -2 9 -12 12 -14 6 -15 5 -6 -5z"/>
<path d="M1626 2871 c-3 -5 2 -15 12 -22 15 -12 16 -12 5 2 -7 9 -10 19 -6 22
3 4 4 7 0 7 -3 0 -8 -4 -11 -9z"/>
<path d="M2703 2849 c-16 -60 -49 -105 -96 -128 -46 -23 -56 -24 -375 -29
-180 -3 -316 -9 -302 -13 14 -4 -29 -7 -94 -6 l-119 2 -4 -24 -3 -25 22 22
c18 16 27 18 38 11 13 -9 12 -10 -2 -5 -10 3 -18 1 -18 -4 0 -5 15 -9 33 -9
17 0 86 -3 152 -6 185 -10 642 9 686 28 70 31 144 144 126 191 -9 23 -38 20
-44 -5z"/>
<path d="M1522 2846 c7 -8 15 -12 17 -11 5 6 -10 25 -20 25 -5 0 -4 -6 3 -14z"/>
<path d="M1398 2823 c7 -3 16 -2 19 1 4 3 -2 6 -13 5 -11 0 -14 -3 -6 -6z"/>
<path d="M1298 2803 c7 -3 16 -2 19 1 4 3 -2 6 -13 5 -11 0 -14 -3 -6 -6z"/>
<path d="M1238 2793 c7 -3 16 -2 19 1 4 3 -2 6 -13 5 -11 0 -14 -3 -6 -6z"/>
<path d="M1478 2793 c7 -3 16 -2 19 1 4 3 -2 6 -13 5 -11 0 -14 -3 -6 -6z"/>
<path d="M1143 2783 c9 -2 23 -2 30 0 6 3 -1 5 -18 5 -16 0 -22 -2 -12 -5z"/>
<path d="M869 2743 c-13 -16 -12 -17 4 -4 9 7 17 15 17 17 0 8 -8 3 -21 -13z"/>
<path d="M1238 2743 c7 -3 16 -2 19 1 4 3 -2 6 -13 5 -11 0 -14 -3 -6 -6z"/>
<path d="M1143 2733 c9 -2 23 -2 30 0 6 3 -1 5 -18 5 -16 0 -22 -2 -12 -5z"/>
<path d="M889 2693 c-13 -16 -12 -17 4 -4 9 7 17 15 17 17 0 8 -8 3 -21 -13z"/>
<path d="M3137 2530 c-90 -23 -172 -86 -212 -163 -47 -88 -4 -126 44 -38 52
94 135 149 241 158 104 10 222 -46 270 -127 42 -69 56 -84 73 -77 26 10 20 40
-20 101 -68 100 -152 146 -278 152 -44 2 -97 -1 -118 -6z"/>
<path d="M1028 2483 c7 -3 16 -2 19 1 4 3 -2 6 -13 5 -11 0 -14 -3 -6 -6z"/>
<path d="M1128 2483 c7 -3 16 -2 19 1 4 3 -2 6 -13 5 -11 0 -14 -3 -6 -6z"/>
<path d="M501 2444 c0 -11 3 -14 6 -6 3 7 2 16 -1 19 -3 4 -6 -2 -5 -13z"/>
<path d="M819 2433 l-24 -28 28 24 c25 23 32 31 24 31 -2 0 -14 -12 -28 -27z"/>
<path d="M1329 2447 c6 -8 7 -17 3 -21 -4 -4 0 -6 8 -4 8 2 14 -2 13 -8 -1 -6
5 -11 13 -11 10 0 6 9 -13 29 -27 29 -45 39 -24 15z"/>
<path d="M1676 2453 c-2 -3 -2 -12 1 -21 4 -9 2 -13 -4 -9 -5 3 -9 -7 -9 -26
1 -28 5 -33 26 -32 14 0 28 5 32 10 5 6 8 5 8 -2 0 -9 7 -10 26 -2 15 5 29 7
32 4 3 -3 0 -5 -7 -5 -7 0 -9 -5 -6 -10 5 -8 11 -7 21 1 11 9 14 9 14 -1 0 -8
7 -10 23 -5 12 4 33 6 46 6 13 -1 30 7 37 16 11 15 16 16 33 6 15 -9 21 -9 23
-1 3 7 7 5 11 -5 7 -17 6 -18 -56 -22 -15 -1 -30 -5 -34 -8 -3 -4 -13 -1 -21
6 -13 10 -14 9 -3 -8 10 -16 6 -40 -18 -128 l-29 -107 27 -38 c55 -75 261
-250 281 -237 17 11 11 28 -22 62 -29 30 -31 35 -17 49 14 14 22 10 84 -40 37
-31 71 -56 75 -56 4 0 13 6 19 14 10 11 1 23 -43 63 -55 47 -72 83 -40 83 8 0
47 -25 86 -55 56 -44 73 -53 84 -44 24 20 16 34 -47 89 -55 48 -71 78 -44 87
6 1 41 -22 79 -53 71 -57 89 -62 94 -27 2 16 -26 45 -120 122 -138 113 -160
121 -204 72 -33 -38 -88 -64 -115 -56 -28 9 -52 69 -43 109 9 44 43 98 57 89
7 -4 5 2 -3 12 -16 20 -18 20 37 -2 12 -5 14 -3 8 8 -4 8 -5 11 0 7 4 -4 13
-1 21 6 13 13 102 32 110 23 3 -3 -15 -8 -39 -11 -82 -13 -175 -124 -147 -176
16 -29 35 -25 77 19 29 30 48 41 83 46 l45 6 142 -116 c79 -63 148 -115 154
-115 6 0 8 8 5 18 -2 9 -19 72 -37 140 l-32 123 -28 -6 c-19 -4 -49 3 -96 23
-37 17 -77 33 -88 36 -11 3 -2 3 20 -1 22 -3 45 -6 52 -6 7 0 9 -5 6 -10 -3
-6 -1 -7 5 -4 14 9 43 -3 36 -14 -3 -5 -3 -9 0 -9 3 0 10 9 16 20 9 16 8 19
-6 13 -12 -4 -15 -3 -10 5 5 8 2 10 -8 6 -9 -3 -16 -1 -16 6 0 6 -5 8 -10 5
-15 -9 -51 5 -44 17 5 7 -2 9 -19 6 -15 -3 -24 -1 -21 3 3 5 -20 8 -50 7 -30
-1 -53 -5 -50 -9 7 -11 -31 -20 -51 -13 -13 5 -16 4 -11 -4 5 -8 -2 -12 -18
-13 -14 -1 -32 -2 -38 -3 -7 -1 -18 2 -25 7 -7 5 -27 7 -45 6 -18 -2 -39 0
-46 5 -6 4 -16 4 -22 1 -5 -3 -10 -1 -10 6 0 6 -8 9 -20 6 -11 -3 -20 -1 -20
5 0 5 -10 6 -21 3 -16 -5 -19 -4 -14 5 6 10 1 11 -19 6 -20 -5 -26 -4 -20 5 5
8 2 10 -8 6 -9 -3 -19 -3 -22 1 -9 8 -33 11 -40 5z m193 -66 c-2 -1 -13 -9
-24 -17 -19 -14 -19 -14 -6 3 7 9 18 17 24 17 6 0 8 -1 6 -3z"/>
<path d="M2610 2441 c0 -5 -10 -7 -22 -4 -19 4 -20 3 -8 -6 11 -8 7 -9 -19 -4
-26 5 -32 3 -26 -7 5 -9 2 -10 -14 -5 -11 3 -21 2 -21 -3 0 -6 -10 -8 -22 -4
-16 4 -19 2 -13 -8 6 -10 4 -12 -9 -7 -11 4 -15 3 -11 -4 4 -6 0 -9 -10 -7
-10 2 -19 -4 -20 -13 -3 -15 0 -15 23 -3 22 11 28 11 34 0 9 -16 120 -15 125
1 3 8 12 9 29 3 18 -7 24 -6 24 4 0 8 3 22 7 32 4 11 3 15 -4 11 -6 -4 -14 0
-17 9 -4 10 -2 13 6 8 7 -4 8 -3 4 4 -8 14 -36 16 -36 3z"/>
<path d="M451 2424 c0 -11 3 -14 6 -6 3 7 2 16 -1 19 -3 4 -6 -2 -5 -13z"/>
<path d="M1275 2420 c10 -11 20 -20 23 -20 3 0 -3 9 -13 20 -10 11 -20 20 -23
20 -3 0 3 -9 13 -20z"/>
<path d="M864 2398 l-19 -23 23 19 c21 18 27 26 19 26 -2 0 -12 -10 -23 -22z"/>
<path d="M1390 2370 c6 -11 13 -20 16 -20 2 0 0 9 -6 20 -6 11 -13 20 -16 20
-2 0 0 -9 6 -20z"/>
<path d="M1920 2372 c0 -5 7 -9 15 -9 8 0 15 4 15 9 0 4 -7 8 -15 8 -8 0 -15
-4 -15 -8z"/>
<path d="M2385 2360 c3 -5 8 -10 11 -10 2 0 4 5 4 10 0 6 -5 10 -11 10 -5 0
-7 -4 -4 -10z"/>
<path d="M2435 2350 c-3 -5 -1 -10 4 -10 6 0 11 5 11 10 0 6 -2 10 -4 10 -3 0
-8 -4 -11 -10z"/>
<path d="M858 2103 c134 -2 350 -2 480 0 130 1 21 2 -243 2 -264 0 -371 -1
-237 -2z"/>
<path d="M2978 2103 c134 -2 350 -2 480 0 130 1 21 2 -243 2 -264 0 -371 -1
-237 -2z"/>
<path d="M390 1394 l0 -235 33 3 32 3 3 88 3 87 47 0 47 0 44 -73 c24 -39 51
-80 59 -89 16 -19 82 -25 82 -8 0 6 -25 48 -55 93 -50 74 -54 83 -38 92 64 36
92 104 73 173 -20 75 -77 101 -227 102 l-103 0 0 -236z m201 166 c47 -13 63
-33 62 -77 -2 -55 -25 -71 -115 -75 l-78 -3 0 82 0 83 48 0 c26 0 63 -5 83
-10z"/>
<path d="M855 1618 c-3 -8 -4 -112 -3 -233 l3 -220 150 0 150 0 3 32 3 32
-118 3 -118 3 -3 63 -3 62 106 0 105 0 0 35 0 35 -105 0 -105 0 0 65 0 64 118
3 117 3 0 30 0 30 -148 3 c-114 2 -149 0 -152 -10z"/>
<path d="M1282 1398 l3 -233 30 0 30 0 3 178 2 178 122 -173 c66 -95 126 -176
132 -181 6 -4 25 -6 41 -5 l30 3 0 230 0 230 -32 3 -33 3 -2 -177 -3 -177
-124 176 -124 177 -39 0 -38 0 2 -232z"/>
<path d="M1780 1595 l0 -35 75 0 75 0 2 -197 3 -198 30 0 30 0 3 197 2 197 78
3 77 3 0 30 0 30 -187 3 -188 2 0 -35z"/>
<path d="M2705 1607 c-51 -29 -81 -74 -95 -144 -23 -111 10 -223 80 -269 50
-33 135 -43 216 -25 53 12 54 13 54 48 0 29 -3 34 -17 28 -39 -15 -113 -24
-149 -18 -52 8 -79 27 -98 68 -22 46 -21 160 2 205 32 64 116 86 215 56 l47
-14 0 34 c0 30 -4 34 -37 43 -68 19 -173 13 -218 -12z"/>
<path d="M3141 1403 c-52 -129 -87 -231 -82 -236 5 -5 21 -7 36 -5 24 3 31 11
50 63 l23 60 95 3 95 3 24 -63 c23 -61 25 -63 58 -63 26 0 34 4 32 15 -2 8
-42 113 -89 233 l-87 217 -32 0 -32 0 -91 -227z m158 42 c17 -44 31 -81 31
-82 0 -2 -29 -3 -65 -3 -36 0 -65 2 -65 4 0 10 63 167 65 164 2 -2 18 -39 34
-83z"/>
<path d="M3580 1394 l0 -235 33 3 32 3 3 88 3 87 47 0 47 0 45 -72 c25 -40 53
-81 62 -90 19 -19 78 -25 78 -8 0 5 -25 47 -55 92 -46 71 -52 84 -38 93 65 42
91 95 78 158 -19 88 -74 116 -227 117 l-108 0 0 -236z m202 166 c66 -19 87
-77 46 -125 -20 -22 -33 -26 -100 -31 l-78 -5 0 86 0 85 48 0 c26 0 64 -5 84
-10z"/>
<path d="M2275 1513 c-31 -8 -42 -21 -40 -45 2 -16 8 -22 21 -20 67 10 124 5
143 -12 28 -26 28 -60 0 -51 -33 11 -116 -5 -151 -29 -43 -29 -55 -64 -39
-115 9 -32 20 -45 51 -61 71 -36 178 -20 214 31 22 32 23 197 0 240 -26 52
-121 81 -199 62z m145 -227 c0 -39 -3 -45 -30 -56 -34 -14 -92 -6 -110 15 -19
23 -4 62 27 73 16 6 47 11 71 11 l42 1 0 -44z"/>
<path d="M524 947 c-3 -8 -4 -49 -2 -93 2 -62 6 -79 18 -79 10 0 16 12 18 33
3 29 6 32 37 32 64 0 86 89 28 111 -36 13 -93 11 -99 -4z m95 -31 c19 -23 2
-46 -35 -46 -29 0 -34 3 -34 23 0 13 3 27 7 30 11 12 50 8 62 -7z"/>
<path d="M700 864 c0 -72 3 -95 13 -92 6 3 13 19 15 36 2 23 8 32 22 32 10 0
21 -8 25 -19 8 -26 42 -54 55 -46 7 4 3 17 -11 36 -19 28 -20 31 -5 48 23 25
20 67 -6 85 -12 9 -42 16 -65 16 l-43 0 0 -96z m88 57 c25 -16 9 -46 -26 -49
-30 -3 -32 -1 -32 27 0 26 4 31 23 31 12 0 28 -4 35 -9z"/>
<path d="M895 935 c-19 -18 -25 -35 -25 -70 0 -58 32 -95 83 -95 53 0 79 27
84 87 5 45 2 55 -20 77 -35 35 -89 35 -122 1z m99 -21 c21 -20 20 -73 -1 -96
-35 -39 -93 -9 -93 48 0 38 22 64 55 64 13 0 31 -7 39 -16z"/>
<path d="M1084 947 c-3 -8 -4 -49 -2 -93 2 -62 6 -79 18 -79 10 0 16 12 18 38
3 35 5 37 38 37 24 0 34 5 34 15 0 10 -11 15 -35 15 -31 0 -35 3 -35 25 0 23
4 25 40 25 29 0 40 4 40 15 0 20 -108 22 -116 2z"/>
<path d="M1244 947 c-3 -8 -4 -49 -2 -93 l3 -79 59 0 c39 0 61 4 64 13 2 8
-10 12 -42 12 -42 0 -46 2 -46 25 0 23 4 25 41 25 52 0 48 24 -4 28 -32 3 -37
7 -37 28 0 22 4 24 46 24 32 0 44 4 42 13 -7 18 -117 22 -124 4z"/>
<path d="M1420 940 c-11 -11 -20 -26 -20 -34 0 -18 27 -46 43 -46 7 0 23 -7
35 -16 33 -23 11 -48 -35 -39 -25 4 -33 2 -33 -8 0 -30 62 -36 98 -11 36 25
26 63 -23 91 -51 29 -52 48 -2 47 24 -1 37 3 37 11 0 30 -71 34 -100 5z"/>
<path d="M1588 948 c-35 -27 -26 -74 16 -88 19 -6 39 -17 45 -24 17 -21 -12
-39 -49 -31 -23 5 -30 3 -30 -8 0 -30 62 -36 98 -11 36 25 26 63 -23 91 -51
29 -52 48 -2 47 24 -1 37 3 37 11 0 26 -64 34 -92 13z"/>
<path d="M1735 947 c-3 -7 -5 -49 -3 -93 2 -62 6 -79 18 -79 12 0 15 17 15 89
0 63 -4 91 -12 93 -7 3 -15 -2 -18 -10z"/>
<path d="M1843 945 c-25 -17 -39 -71 -29 -110 16 -65 94 -88 141 -40 19 18 25
35 25 70 0 35 -6 52 -25 70 -28 29 -79 33 -112 10z m91 -31 c9 -8 16 -31 16
-49 0 -18 -7 -41 -16 -49 -36 -37 -94 -6 -94 50 0 38 22 64 55 64 13 0 31 -7
39 -16z"/>
<path d="M2027 953 c-3 -5 -4 -46 -3 -93 1 -68 4 -85 16 -85 11 0 16 15 18 64
l3 64 45 -66 c43 -65 73 -85 75 -49 5 95 -1 167 -13 167 -9 0 -14 -19 -16 -64
l-3 -64 -45 66 c-40 61 -65 80 -77 60z"/>
<path d="M2260 873 c-19 -48 -34 -89 -33 -92 5 -17 24 -9 34 13 10 21 19 26
50 26 31 0 38 -4 43 -25 6 -25 37 -36 35 -12 -1 28 -67 172 -80 175 -9 2 -26
-27 -49 -85z m70 -15 c0 -5 -9 -8 -20 -8 -22 0 -23 3 -13 39 l6 23 13 -23 c7
-13 13 -27 14 -31z"/>
<path d="M2430 865 l0 -96 57 3 c69 4 84 25 21 30 l-43 3 -3 78 c-2 59 -6 77
-17 77 -12 0 -15 -19 -15 -95z"/>
<path d="M2670 946 c0 -9 11 -16 28 -18 27 -3 27 -4 30 -81 2 -56 6 -77 15
-74 8 2 13 32 15 80 l3 77 30 0 c20 0 29 4 27 13 -3 8 -30 13 -76 15 -58 2
-72 0 -72 -12z"/>
<path d="M2862 883 c-38 -96 -40 -104 -25 -110 7 -3 17 7 23 21 8 21 16 26 45
26 28 0 38 -5 47 -25 12 -26 23 -31 32 -16 9 14 -61 176 -77 179 -10 2 -24
-22 -45 -75z m62 -25 c-7 -10 -34 -10 -34 0 0 4 3 18 7 31 l6 23 13 -23 c7
-13 10 -27 8 -31z"/>
<path d="M3045 935 c-19 -18 -25 -35 -25 -70 0 -58 32 -95 83 -95 51 0 69 18
65 65 -3 37 -5 40 -32 40 -35 0 -46 -20 -16 -28 31 -8 22 -41 -11 -45 -35 -4
-59 22 -59 63 0 47 24 68 72 62 27 -4 38 -1 38 8 0 33 -82 34 -115 0z"/>
<path d="M3218 953 c-2 -4 -4 -46 -4 -93 l1 -85 59 0 c39 0 61 4 64 13 2 8
-10 12 -42 12 l-45 0 -3 77 c-2 47 -8 78 -15 80 -6 2 -13 0 -15 -4z"/>
<path d="M3380 876 c0 -47 0 -89 0 -93 0 -5 6 -8 13 -8 9 0 12 25 12 89 0 63
-4 91 -12 94 -10 3 -13 -18 -13 -82z"/>
<path d="M3460 865 c0 -76 3 -95 15 -95 11 0 15 16 17 67 l3 68 33 -51 c41
-65 69 -91 83 -77 5 5 9 46 7 94 -2 65 -6 84 -17 84 -12 0 -14 -14 -12 -65 1
-36 0 -63 -2 -60 -3 3 -26 33 -51 68 -66 89 -76 84 -76 -33z"/>
<path d="M3670 865 l0 -95 60 0 c47 0 60 3 60 15 0 11 -12 15 -45 15 -41 0
-45 2 -45 25 0 23 4 25 40 25 29 0 40 4 40 15 0 11 -11 15 -40 15 -36 0 -40 3
-40 25 0 23 4 25 45 25 33 0 45 4 45 15 0 12 -13 15 -60 15 l-60 0 0 -95z"/>
</g>
</svg>
